# xmcd
#
# Track frame offsets:
#	150
#	12004
#	21291
#	29743
#	36638
#	45785
#	53428
#	63642
#	71636
#	83732
#	91587
#	101797
#	112205
#	120721
#	129894
#	142790
#	151322
#
# Disc length: 2114 seconds
#
# Revision: 0
# Processed by: cddbd v1.5.2PL0 Copyright (c) Steve Scherf et al.
# Submitted via: EasyCDDAExtractor 8.2.3.1
#
DISCID=da084011
DTITLE=James M German - Favorite Hymns On Chromatic Harmonica
DYEAR=2007
DGENRE=Harmonica
TTITLE0=The Old Rugged Cross
TTITLE1=God Will Take Care Of You
TTITLE2=As The Deer
TTITLE3=Cleanse Me
TTITLE4=Nailed To The Cross
TTITLE5=Have Thine Own Way Lord
TTITLE6=Speak My Lord
TTITLE7=Abide With Me
TTITLE8=I Love To Tell The Story
TTITLE9=Amazing Grace
TTITLE10=Just A Closer Walk With Thee
TTITLE11=There's Something About That Name
TTITLE12=Open Thine Eyes That I May See
TTITLE13=Nearer My God To Thee
TTITLE14=Living For Jesus
TTITLE15=Turn Your Eyes Upon Jesus
TTITLE16=Rock Of Ages Cleft For Me
EXTD=
EXTT0=
EXTT1=
EXTT2=
EXTT3=
EXTT4=
EXTT5=
EXTT6=
EXTT7=
EXTT8=
EXTT9=
EXTT10=
EXTT11=
EXTT12=
EXTT13=
EXTT14=
EXTT15=
EXTT16=
PLAYORDER=
